<svg version="1.1" id="Layer_1" xmlns="http://www.w3.org/2000/svg" xmlns:xlink="http://www.w3.org/1999/xlink" x="0px" y="0px"
	 width="100%" viewBox="0 0 367 367" enable-background="new 0 0 367 367" xml:space="preserve">
<path fill="#8C52FF" opacity="1.000000" stroke="none" 
	d="
M331.000000,368.000000 
	C220.666672,368.000000 110.833336,368.000000 1.000000,368.000000 
	C1.000000,245.666672 1.000000,123.333336 1.000000,1.000000 
	C123.333336,1.000000 245.666672,1.000000 368.000000,1.000000 
	C368.000000,123.333336 368.000000,245.666672 368.000000,368.000000 
	C355.833344,368.000000 343.666656,368.000000 331.000000,368.000000 
M278.047882,227.824615 
	C280.260620,231.433594 282.933563,230.419418 285.334076,228.267929 
	C287.967010,225.908173 288.236450,223.304382 284.815063,220.345764 
	C282.670410,216.895035 279.888458,215.733246 276.835358,218.953278 
	C274.136749,221.799393 274.072876,224.829620 278.047882,227.824615 
M260.134186,189.398315 
	C259.782104,188.906189 259.429993,188.414078 258.889618,187.270218 
	C255.673340,182.007523 251.016449,178.707535 244.888519,178.229996 
	C236.854996,177.603958 230.253967,180.811966 225.272751,187.304291 
	C223.689789,184.727875 222.334213,182.521545 220.977386,180.064087 
	C220.977386,180.064087 220.769623,179.922989 220.699997,179.513290 
	C220.538315,179.267700 220.313690,179.114075 219.804321,178.405472 
	C213.865829,170.249939 205.190781,169.052734 196.145416,169.601227 
	C183.764511,170.352036 180.639267,173.827179 179.968521,186.300400 
	C179.946457,186.710419 179.650711,187.105713 179.453598,187.577103 
	C166.516739,175.709808 156.383255,175.026779 146.264847,184.722305 
	C145.521759,183.855743 144.778656,182.989166 143.771591,181.463806 
	C140.822174,179.953461 138.014282,177.668976 134.893082,177.098389 
	C128.905701,176.003891 122.740234,175.885239 116.649178,175.355713 
	C113.025772,175.040710 109.452415,175.264694 107.662292,178.992233 
	C105.865448,182.733734 107.641563,185.682388 110.916161,188.737778 
	C114.135597,189.859863 117.355026,190.981934 120.559067,192.923111 
	C120.155708,200.704422 119.668671,208.482681 119.383560,216.268326 
	C119.236389,220.287338 119.466042,224.312912 123.523483,227.626114 
	C127.884163,231.430405 132.845978,230.830017 134.548447,225.612473 
	C135.952118,221.310684 136.434509,216.520905 136.349731,211.965530 
	C136.227890,205.418015 135.220474,198.886963 134.584885,192.284683 
	C137.589249,191.845306 140.353424,191.441055 143.180435,191.875397 
	C141.763840,204.525925 142.913727,216.479721 152.908585,226.756805 
	C162.158524,232.792206 172.388611,230.848602 178.882828,221.867279 
	C179.426407,221.115555 180.262787,220.575577 181.147125,220.607483 
	C182.372681,222.445679 183.598251,224.283859 185.028885,226.651932 
	C185.351257,226.795898 185.673630,226.939865 185.855881,227.006790 
	C185.855881,227.006790 185.777847,227.146362 186.069504,227.838287 
	C189.584961,231.073151 193.764481,230.339798 197.780716,229.519028 
	C210.409103,226.938232 218.817093,219.217789 223.969193,208.382980 
	C225.555038,214.427673 226.827682,220.622604 232.120590,225.493164 
	C232.420654,225.681824 232.720718,225.870468 233.010101,225.990692 
	C233.010101,225.990692 232.941971,226.003098 233.256714,226.643997 
	C241.184860,231.972260 251.466202,231.121353 257.289337,224.655045 
	C264.118713,217.071335 265.592133,198.783463 260.018311,189.952042 
	C260.018311,189.952042 260.136444,190.027679 260.134186,189.398315 
z"/>
<path fill="#FEBB5A" opacity="1.000000" stroke="none" 
	d="
M152.484375,226.147522 
	C142.913727,216.479721 141.763840,204.525925 143.353195,191.223892 
	C144.598618,188.793549 145.671295,187.014694 146.743958,185.235855 
	C156.383255,175.026779 166.516739,175.709808 179.453598,187.577103 
	C179.650711,187.105713 179.946457,186.710419 179.968521,186.300400 
	C180.639267,173.827179 183.764511,170.352036 196.145416,169.601227 
	C205.190781,169.052734 213.865829,170.249939 220.018463,178.891144 
	C220.382858,179.587112 220.561874,179.769165 220.769623,179.922989 
	C220.769623,179.922989 220.977386,180.064087 220.989319,180.580353 
	C221.336685,187.405029 221.672119,193.713440 221.987488,200.398361 
	C218.960892,212.788071 212.002945,221.397949 199.964767,225.025192 
	C195.434082,226.390350 190.518158,226.476913 185.777847,227.146362 
	C185.777847,227.146362 185.855881,227.006790 185.760757,226.849808 
	C185.385025,226.502563 185.104416,226.312317 184.823807,226.122055 
	C183.598251,224.283859 182.372681,222.445679 181.066086,219.837372 
	C180.978546,216.739029 180.972046,214.410782 180.976120,211.605896 
	C180.986694,204.261765 180.986694,197.394287 180.986694,190.526810 
	C180.664490,190.559769 180.342285,190.592743 180.020081,190.625717 
	C179.682297,197.753159 179.344528,204.880615 178.984177,212.379761 
	C175.813629,223.555481 168.342667,228.414932 157.357849,226.811050 
	C155.735641,226.574219 154.108978,226.367935 152.484375,226.147522 
M205.018204,190.182388 
	C205.018204,190.182388 204.871140,190.303711 204.591965,189.621124 
	C202.218018,188.851044 199.606979,187.141129 197.557724,187.658081 
	C196.298508,187.975723 195.501831,191.648193 195.209213,193.906479 
	C194.807205,197.008789 194.771011,200.239883 195.186829,203.333984 
	C195.409607,204.991730 196.907455,206.478088 198.577637,208.258270 
	C205.920395,205.596420 209.650589,196.991257 205.701019,190.701553 
	C205.433289,190.479202 205.165558,190.256866 205.018204,190.182388 
M159.648117,215.285324 
	C163.508286,218.678314 166.448502,216.083908 167.063553,212.848419 
	C168.099838,207.396759 167.703003,201.672699 167.614212,195.433655 
	C164.012527,192.214920 159.426300,192.951218 157.525177,197.726578 
	C155.225327,203.503448 154.544235,209.542282 159.648117,215.285324 
z"/>
<path fill="#FEBA5A" opacity="1.000000" stroke="none" 
	d="
M222.007538,200.021835 
	C221.672119,193.713440 221.336685,187.405029 220.989944,180.705933 
	C222.334213,182.521545 223.689789,184.727875 225.272751,187.304291 
	C230.253967,180.811966 236.854996,177.603958 244.888519,178.229996 
	C251.016449,178.707535 255.673340,182.007523 259.043365,187.890533 
	C259.510223,189.016449 259.823334,189.522064 260.136444,190.027679 
	C260.136444,190.027679 260.018311,189.952042 260.043457,190.331970 
	C260.366943,195.479843 261.184692,200.282730 260.866882,205.009247 
	C259.891510,219.515472 252.531174,230.448074 234.422424,226.105881 
	C233.947998,225.992126 233.436295,226.033875 232.941971,226.003098 
	C232.941971,226.003098 233.010101,225.990692 232.878860,225.803894 
	C232.475510,225.404633 232.203384,225.192154 231.931274,224.979691 
	C226.827682,220.622604 225.555038,214.427673 223.777405,207.659088 
	C223.059601,204.630737 222.533569,202.326294 222.007538,200.021835 
M247.868713,195.310791 
	C244.434341,192.489777 241.296127,193.087448 238.550720,197.085373 
	C235.902267,200.942184 236.311844,210.002106 239.731339,214.537048 
	C243.121750,217.620956 245.570053,217.557602 247.317581,213.601288 
	C249.814041,207.949371 250.948288,201.981476 247.868713,195.310791 
z"/>
<path fill="#FEBB5A" opacity="1.000000" stroke="none" 
	d="
M123.255219,226.974899 
	C119.466042,224.312912 119.236389,220.287338 119.383560,216.268326 
	C119.668671,208.482681 120.155708,200.704422 120.610397,192.146194 
	C119.848839,190.579315 119.148071,189.315536 118.201279,189.091522 
	C115.729279,188.506607 113.149590,188.376785 110.612846,188.065491 
	C107.641563,185.682388 105.865448,182.733734 107.662292,178.992233 
	C109.452415,175.264694 113.025772,175.040710 116.649178,175.355713 
	C122.740234,175.885239 128.905701,176.003891 134.893082,177.098389 
	C138.014282,177.668976 140.822174,179.953461 143.884705,182.170410 
	C143.975235,187.779144 140.170471,188.501099 136.750259,188.657074 
	C132.122375,188.868118 132.058792,191.009857 132.370804,194.818405 
	C133.030380,202.868927 133.654785,211.027847 133.033371,219.044617 
	C132.531754,225.516251 129.899384,226.889267 123.255219,226.974899 
z"/>
<path fill="#F87F3D" opacity="1.000000" stroke="none" 
	d="
M123.389351,227.300507 
	C129.899384,226.889267 132.531754,225.516251 133.033371,219.044617 
	C133.654785,211.027847 133.030380,202.868927 132.370804,194.818405 
	C132.058792,191.009857 132.122375,188.868118 136.750259,188.657074 
	C140.170471,188.501099 143.975235,187.779144 144.016693,182.499817 
	C144.778656,182.989166 145.521759,183.855743 146.504395,184.979080 
	C145.671295,187.014694 144.598618,188.793549 143.321777,190.804596 
	C140.353424,191.441055 137.589249,191.845306 134.584885,192.284683 
	C135.220474,198.886963 136.227890,205.418015 136.349731,211.965530 
	C136.434509,216.520905 135.952118,221.310684 134.548447,225.612473 
	C132.845978,230.830017 127.884163,231.430405 123.389351,227.300507 
z"/>
<path fill="#F87F3D" opacity="1.000000" stroke="none" 
	d="
M221.987488,200.398361 
	C222.533569,202.326294 223.059601,204.630737 223.716263,207.244080 
	C218.817093,219.217789 210.409103,226.938232 197.780716,229.519028 
	C193.764481,230.339798 189.584961,231.073151 185.923676,227.492325 
	C190.518158,226.476913 195.434082,226.390350 199.964767,225.025192 
	C212.002945,221.397949 218.960892,212.788071 221.987488,200.398361 
z"/>
<path fill="#F87F3D" opacity="1.000000" stroke="none" 
	d="
M233.099335,226.323547 
	C233.436295,226.033875 233.947998,225.992126 234.422424,226.105881 
	C252.531174,230.448074 259.891510,219.515472 260.866882,205.009247 
	C261.184692,200.282730 260.366943,195.479843 260.081665,190.273163 
	C265.592133,198.783463 264.118713,217.071335 257.289337,224.655045 
	C251.466202,231.121353 241.184860,231.972260 233.099335,226.323547 
z"/>
<path fill="#F87F3D" opacity="1.000000" stroke="none" 
	d="
M180.965546,212.082550 
	C180.972046,214.410782 180.978546,216.739029 180.974091,219.502243 
	C180.262787,220.575577 179.426407,221.115555 178.882828,221.867279 
	C172.388611,230.848602 162.158524,232.792206 152.696472,226.452164 
	C154.108978,226.367935 155.735641,226.574219 157.357849,226.811050 
	C168.342667,228.414932 175.813629,223.555481 179.311279,212.369995 
	C180.095825,212.019867 180.530685,212.051208 180.965546,212.082550 
z"/>
<path fill="#FEBB5A" opacity="1.000000" stroke="none" 
	d="
M277.863800,227.115265 
	C274.072876,224.829620 274.136749,221.799393 276.835358,218.953278 
	C279.888458,215.733246 282.670410,216.895035 284.856628,221.024200 
	C283.964935,225.341324 281.427734,226.895477 277.863800,227.115265 
z"/>
<path fill="#F87F3D" opacity="1.000000" stroke="none" 
	d="
M277.955841,227.469940 
	C281.427734,226.895477 283.964935,225.341324 284.977356,221.351562 
	C288.236450,223.304382 287.967010,225.908173 285.334076,228.267929 
	C282.933563,230.419418 280.260620,231.433594 277.955841,227.469940 
z"/>
<path fill="#F87F3D" opacity="1.000000" stroke="none" 
	d="
M110.764503,188.401642 
	C113.149590,188.376785 115.729279,188.506607 118.201279,189.091522 
	C119.148071,189.315536 119.848839,190.579315 120.618088,191.736649 
	C117.355026,190.981934 114.135597,189.859863 110.764503,188.401642 
z"/>
<path fill="#F87F3D" opacity="1.000000" stroke="none" 
	d="
M260.135315,189.712997 
	C259.823334,189.522064 259.510223,189.016449 259.137512,188.216400 
	C259.429993,188.414078 259.782104,188.906189 260.135315,189.712997 
z"/>
<path fill="#FEBA5A" opacity="1.000000" stroke="none" 
	d="
M220.734802,179.718140 
	C220.561874,179.769165 220.382858,179.587112 220.129333,179.214630 
	C220.313690,179.114075 220.538315,179.267700 220.734802,179.718140 
z"/>
<path fill="#F87F3D" opacity="1.000000" stroke="none" 
	d="
M232.025940,225.236420 
	C232.203384,225.192154 232.475510,225.404633 232.884201,225.838104 
	C232.720718,225.870468 232.420654,225.681824 232.025940,225.236420 
z"/>
<path fill="#F87F3D" opacity="1.000000" stroke="none" 
	d="
M184.926346,226.386993 
	C185.104416,226.312317 185.385025,226.502563 185.830811,226.888336 
	C185.673630,226.939865 185.351257,226.795898 184.926346,226.386993 
z"/>
<path fill="#9155F7" opacity="1.000000" stroke="none" 
	d="
M167.908920,196.063202 
	C167.703003,201.672699 168.099838,207.396759 167.063553,212.848419 
	C166.448502,216.083908 163.508286,218.678314 159.333847,214.690277 
	C158.856232,211.331345 158.345383,208.535248 158.598114,205.809952 
	C159.225113,199.048355 161.673401,196.664276 167.908920,196.063202 
z"/>
<path fill="#9155F7" opacity="1.000000" stroke="none" 
	d="
M206.000351,191.134872 
	C209.650589,196.991257 205.920395,205.596420 198.181366,207.679535 
	C197.842026,203.651047 197.945190,200.201294 197.946060,196.751511 
	C197.947784,189.990646 198.291107,189.648529 204.871140,190.303711 
	C204.871140,190.303711 205.018204,190.182388 204.945602,190.419861 
	C205.248779,190.816513 205.624557,190.975693 206.000351,191.134872 
z"/>
<path fill="#F87F3D" opacity="1.000000" stroke="none" 
	d="
M204.731552,189.962418 
	C198.291107,189.648529 197.947784,189.990646 197.946060,196.751511 
	C197.945190,200.201294 197.842026,203.651047 197.807510,207.571289 
	C196.907455,206.478088 195.409607,204.991730 195.186829,203.333984 
	C194.771011,200.239883 194.807205,197.008789 195.209213,193.906479 
	C195.501831,191.648193 196.298508,187.975723 197.557724,187.658081 
	C199.606979,187.141129 202.218018,188.851044 204.731552,189.962418 
z"/>
<path fill="#F87F3D" opacity="1.000000" stroke="none" 
	d="
M167.761566,195.748428 
	C161.673401,196.664276 159.225113,199.048355 158.598114,205.809952 
	C158.345383,208.535248 158.856232,211.331345 159.051361,214.493942 
	C154.544235,209.542282 155.225327,203.503448 157.525177,197.726578 
	C159.426300,192.951218 164.012527,192.214920 167.761566,195.748428 
z"/>
<path fill="#FEBA5A" opacity="1.000000" stroke="none" 
	d="
M180.976120,211.605896 
	C180.530685,212.051208 180.095825,212.019867 179.333862,211.998291 
	C179.344528,204.880615 179.682297,197.753159 180.020081,190.625717 
	C180.342285,190.592743 180.664490,190.559769 180.986694,190.526810 
	C180.986694,197.394287 180.986694,204.261765 180.976120,211.605896 
z"/>
<path fill="#F87F3D" opacity="1.000000" stroke="none" 
	d="
M205.850677,190.918213 
	C205.624557,190.975693 205.248779,190.816513 204.885406,190.345932 
	C205.165558,190.256866 205.433289,190.479202 205.850677,190.918213 
z"/>
<path fill="#9155F7" opacity="1.000000" stroke="none" 
	d="
M248.123215,195.965942 
	C250.948288,201.981476 249.814041,207.949371 247.317581,213.601288 
	C245.570053,217.557602 243.121750,217.620956 239.483505,213.820679 
	C239.165283,210.635193 238.899078,208.152969 239.063004,205.699493 
	C239.473770,199.551529 241.963425,196.977676 248.123215,195.965942 
z"/>
<path fill="#F87F3D" opacity="1.000000" stroke="none" 
	d="
M247.995972,195.638367 
	C241.963425,196.977676 239.473770,199.551529 239.063004,205.699493 
	C238.899078,208.152969 239.165283,210.635193 239.276199,213.566681 
	C236.311844,210.002106 235.902267,200.942184 238.550720,197.085373 
	C241.296127,193.087448 244.434341,192.489777 247.995972,195.638367 
z"/>
</svg>